<?xml version="1.0" ?>
<svg viewBox="0 0 24 24" xmlns="http://www.w3.org/2000/svg">
  <path d="M18.7929,1.2929C19.1834,0.9024 19.8166,0.9024 20.2071,1.2929L22.7071,3.7929C23.0976,4.1834 23.0976,4.8166 22.7071,5.2071L15.2071,12.7071C15.0196,12.8946 14.7652,13 14.5,13H12C11.4477,13 11,12.5523 11,12V9.5C11,9.2348 11.1054,8.9804 11.2929,8.7929L18.7929,1.2929ZM13,9.9142V11H14.0858L20.5858,4.5L19.5,3.4142L13,9.9142ZM1,14.5C1,12.567 2.567,11 4.5,11H8C8.5523,11 9,11.4477 9,12C9,12.5523 8.5523,13 8,13H4.5C3.6716,13 3,13.6716 3,14.5C3,15.3284 3.6716,16 4.5,16H19.5C21.433,16 23,17.567 23,19.5C23,21.433 21.433,23 19.5,23H9C8.4477,23 8,22.5523 8,22C8,21.4477 8.4477,21 9,21H19.5C20.3284,21 21,20.3284 21,19.5C21,18.6716 20.3284,18 19.5,18H4.5C2.567,18 1,16.433 1,14.5Z" fill="#202225" fill-rule="evenodd"/>
</svg>
