<?xml version="1.0" ?>
<svg viewBox="0 0 22 22" xmlns="http://www.w3.org/2000/svg">
  <path d="M8.206,0.4079C9.1191,0.1659 10.0651,0.0449 11.0001,0.0449C12.4741,0.0449 13.9041,0.3309 15.2571,0.9029L15.0701,8.8449L8.206,0.4079Z" fill="#ffffff" fill-rule="evenodd"/>
  <path d="M1.5283,5.4897C2.0123,4.6647 2.5843,3.9167 3.2553,3.2567C4.2893,2.2117 5.5103,1.4087 6.8633,0.8477L12.3523,6.5897L1.5283,5.4897Z" fill="#ffffff" fill-rule="evenodd"/>
  <path d="M0.4069,13.7952C0.1649,12.8821 0.0439,11.9471 0.0439,11.0011C0.0439,9.5271 0.3299,8.0971 0.9019,6.7441L8.844,6.9311L0.4069,13.7952Z" fill="#ffffff" fill-rule="evenodd"/>
  <path d="M5.4884,20.4725C4.6744,19.9994 3.9154,19.4164 3.2554,18.7454C2.2104,17.7114 1.4074,16.5014 0.8574,15.1374L6.5994,9.6484L5.4884,20.4725Z" fill="#ffffff" fill-rule="evenodd"/>
  <path d="M11.0002,21.9563C9.5262,21.9563 8.0962,21.6703 6.7432,21.0983L6.9192,13.1562L13.7942,21.5933C12.8812,21.8353 11.9462,21.9563 11.0002,21.9563Z" fill="#ffffff" fill-rule="evenodd"/>
  <path d="M9.6475,15.4121L20.4715,16.5231C19.9985,17.3371 19.4155,18.0851 18.7445,18.7561C17.7105,19.8011 16.4895,20.6041 15.1255,21.1541L9.6475,15.4121Z" fill="#ffffff" fill-rule="evenodd"/>
  <path d="M13.1553,15.082L21.5923,8.207C21.8343,9.12 21.9553,10.066 21.9553,11.001C21.9553,12.475 21.6693,13.905 21.0973,15.258L13.1553,15.082Z" fill="#ffffff" fill-rule="evenodd"/>
  <path d="M16.5104,1.5293C17.3244,2.0023 18.0834,2.5853 18.7434,3.2453C19.7884,4.2793 20.5914,5.5003 21.1414,6.8643L15.3994,12.3533L16.5104,1.5293Z" fill="#ffffff" fill-rule="evenodd"/>
</svg>
