<svg width="21" height="20" viewBox="0 0 21 20" fill="none" xmlns="http://www.w3.org/2000/svg">
<path d="M8.8333 14.197H6.60747C6.27891 14.198 5.9534 14.1337 5.64985 14.0077C5.34629 13.8817 5.07073 13.6965 4.83915 13.4629L0.543333 9.15805C0.519167 9.44365 0.5 9.73009 0.5 10.0215C0.50366 12.5329 1.44745 14.9515 3.14477 16.7991C4.8421 18.6468 7.16942 19.789 9.66663 20V15.0321C9.66663 14.8106 9.57883 14.5982 9.42255 14.4416C9.26627 14.285 9.05431 14.197 8.8333 14.197Z" fill="#D1D1D1"/>
<path d="M17.53 2.90494L16.0383 4.39975C15.6469 4.78981 15.1178 5.00946 14.5658 5.01104H13.4167C13.3061 5.01104 13.2002 5.05503 13.122 5.13333C13.0439 5.21164 13 5.31784 13 5.42858V6.26367C13 6.81737 12.7805 7.34839 12.3898 7.73992C11.9991 8.13144 11.4692 8.3514 10.9167 8.3514C10.8062 8.3514 10.7002 8.39539 10.622 8.47369C10.5439 8.552 10.5 8.6582 10.5 8.76894V9.18649C10.5 9.40797 10.5878 9.62038 10.7441 9.77699C10.9004 9.9336 11.1123 10.0216 11.3333 10.0216H13.8333C14.4964 10.0216 15.1322 10.2855 15.6011 10.7554C16.0699 11.2252 16.3333 11.8624 16.3333 12.5268V13.3302C16.3333 13.4407 16.3771 13.5467 16.455 13.625L18.6425 15.8179C20.0215 13.8853 20.6671 11.5229 20.4631 9.1558C20.2592 6.78869 19.2191 4.57218 17.53 2.90494Z" fill="#D1D1D1"/>
<path d="M14.6664 13.3302V12.5268C14.6664 12.3054 14.5786 12.093 14.4224 11.9363C14.2661 11.7797 14.0541 11.6917 13.8331 11.6917H11.3331C10.6701 11.6917 10.0342 11.4278 9.56536 10.958C9.09652 10.4881 8.83313 9.85092 8.83313 9.18648V8.76893C8.83313 8.21523 9.05263 7.68421 9.44333 7.29269C9.83402 6.90116 10.3639 6.68121 10.9165 6.68121C11.027 6.68121 11.1329 6.63722 11.2111 6.55891C11.2892 6.48061 11.3331 6.3744 11.3331 6.26366V5.42857C11.3331 4.87487 11.5526 4.34385 11.9433 3.95233C12.334 3.5608 12.8639 3.34085 13.4164 3.34085H14.5656C14.6758 3.34019 14.7813 3.29644 14.8598 3.21892L16.2439 1.83184C14.948 0.914633 13.4526 0.320303 11.8816 0.0981556C10.3107 -0.123992 8.70951 0.0324462 7.21096 0.554492C5.71241 1.07654 4.35968 1.94914 3.26499 3.09991C2.1703 4.25068 1.3652 5.64644 0.916504 7.1714L6.01648 12.2822C6.09404 12.3599 6.18616 12.4215 6.28755 12.4635C6.38894 12.5055 6.4976 12.527 6.60731 12.5268H8.83313C9.49617 12.5268 10.1321 12.7908 10.6009 13.2606C11.0697 13.7304 11.3331 14.3677 11.3331 15.0321V20.0001C13.6887 19.8058 15.8988 18.7791 17.5689 17.1031L15.2764 14.8058C14.8872 14.4136 14.668 13.8834 14.6664 13.3302Z" fill="#D1D1D1"/>
</svg>
