<?xml version="1.0" ?>
<svg viewBox="0 0 26 26" xmlns="http://www.w3.org/2000/svg">
  <path d="M25.6652,15.9445C25.6652,12.3594 22.0775,9.4395 18.0506,9.4395C13.785,9.4395 10.4258,12.3619 10.4258,15.9445C10.4258,19.5348 13.785,22.4496 18.0506,22.4496C18.9443,22.4496 19.8457,22.2236 20.742,22.0002L23.1998,23.3459L22.5244,21.1064C24.3246,19.7557 25.6652,17.9656 25.6652,15.9445ZM15.6918,14.9492C15.1307,14.9492 14.6762,14.4947 14.6762,13.9336C14.6762,13.3725 15.1307,12.918 15.6918,12.918C16.2529,12.918 16.7074,13.3725 16.7074,13.9336C16.7074,14.4922 16.2529,14.9492 15.6918,14.9492ZM20.6252,14.9416C20.0641,14.9416 19.6096,14.4871 19.6096,13.926C19.6096,13.3648 20.0641,12.9104 20.6252,12.9104C21.1863,12.9104 21.6408,13.3648 21.6408,13.926C21.6408,14.4871 21.1863,14.9416 20.6252,14.9416Z" fill="#ffffff"/>
  <path d="M9.3004,2.7148C4.3721,2.7148 0.335,6.074 0.335,10.3396C0.335,12.8025 1.6781,14.8236 3.9227,16.3928L3.0264,19.0892L6.1596,17.5176C7.2818,17.7385 8.1807,17.967 9.3004,17.967C9.5822,17.967 9.8615,17.9543 10.1383,17.9314C9.9631,17.3322 9.8615,16.7051 9.8615,16.0525C9.8615,12.1348 13.2258,8.9559 17.4838,8.9559C17.7758,8.9559 18.0627,8.9762 18.3471,9.0092C17.5701,5.3986 13.7082,2.7148 9.3004,2.7148ZM6.2891,8.867C5.6162,8.867 5.0703,8.3211 5.0703,7.6482C5.0703,6.9754 5.6162,6.4295 6.2891,6.4295C6.9619,6.4295 7.5078,6.9754 7.5078,7.6482C7.5078,8.3211 6.9619,8.867 6.2891,8.867ZM12.5504,8.867C11.8775,8.867 11.3316,8.3211 11.3316,7.6482C11.3316,6.9754 11.8775,6.4295 12.5504,6.4295C13.2232,6.4295 13.7691,6.9754 13.7691,7.6482C13.7691,8.3211 13.2232,8.867 12.5504,8.867Z" fill="#ffffff"/>
</svg>
